<?xml version="1.0" encoding="UTF-8"?>
<svg id="BACKGROUND" xmlns="http://www.w3.org/2000/svg" viewBox="0 0 902.4 706.9">
  <path d="M117.19,96.37l-14.74-8.46c.4-.22,.74-.41,1.09-.61,4.48-2.52,8.96-5.04,13.44-7.56,.15-.08,.26-.11,.42-.01,4.73,2.72,9.46,5.43,14.19,8.14,.11,.06,.21,.13,.36,.23l-14.71,8.27c1.45,.8,2.88,1.59,4.31,2.38,3.37,1.86,6.73,3.72,10.11,5.57,.21,.12,.3,.24,.3,.49,0,5.04,0,10.07,0,15.11v.43c5.06-2.59,10.08-5.16,15.12-7.74,0,.37,0,.71,0,1.04,0,5.02,0,10.04,0,15.05,0,.2-.05,.31-.24,.4-4.88,2.5-9.76,5-14.63,7.5-.07,.03-.14,.06-.24,.1v-16.36c-.14,.07-.24,.12-.34,.18-4.72,2.59-9.44,5.19-14.15,7.79-.19,.11-.33,.11-.53,0-4.75-2.5-9.46-5.07-14.1-7.76-.11-.06-.22-.12-.37-.21v16.37c-.15-.06-.24-.1-.33-.15-3.49-1.79-6.98-3.58-10.48-5.37-1.37-.7-2.73-1.42-4.1-2.12-.16-.08-.22-.17-.22-.35,0-5.32,0-10.64,0-15.96,0-.05,0-.1,0-.2,5.03,2.58,10.04,5.16,15.11,7.76v-.42c0-5.1,0-10.19,0-15.29,0-.26,.08-.39,.31-.52,4.7-2.51,9.39-5.04,14.08-7.56,.11-.06,.22-.12,.36-.2Zm-12.67-8.47c.11,.07,.2,.13,.29,.18,4.05,2.36,8.09,4.72,12.14,7.09,.2,.12,.34,.11,.53,0,4.12-2.32,8.23-4.63,12.35-6.94,.07-.04,.14-.09,.23-.15-.1-.06-.17-.11-.25-.15-4.14-2.32-8.29-4.65-12.43-6.98-.17-.1-.28-.04-.42,.03-2.55,1.41-5.09,2.83-7.64,4.24-1.59,.88-3.18,1.77-4.8,2.68Zm-16.07,26.28c0,.17,0,.29,0,.4,0,4.51,0,9.02,0,13.53,0,.25,.07,.38,.29,.5,4.13,2.14,8.26,4.28,12.39,6.43,.05,.03,.12,.04,.2,.07v-.26c0-4.5,0-9,0-13.5,0-.23-.07-.34-.27-.45-4.11-2.18-8.21-4.38-12.32-6.57-.08-.04-.17-.08-.3-.15Zm44.63,20.94c.09-.04,.13-.05,.16-.06,4.18-2.17,8.36-4.35,12.54-6.53,.09-.05,.17-.21,.17-.32,.01-4.57,.01-9.14,.01-13.71,0-.09-.01-.19-.02-.3-.08,.04-.13,.06-.18,.08-4.13,2.2-8.25,4.4-12.38,6.59-.24,.13-.32,.27-.32,.54,0,4.35,0,8.69,0,13.04,0,.21,0,.42,0,.68Zm-29.1-14.96c.07,.04,.12,.08,.18,.12,4.28,2.34,8.57,4.67,12.85,7.01,.16,.09,.28,.06,.42-.02,3.86-2.13,7.73-4.26,11.59-6.39,.41-.23,.81-.46,1.23-.71-.08-.05-.14-.09-.2-.12-2.23-1.22-4.46-2.44-6.69-3.66-.17-.09-.28-.05-.42,.03-1.8,.96-3.61,1.92-5.41,2.89-.23,.12-.4,.13-.64,0-1.8-.97-3.61-1.92-5.41-2.89-.19-.1-.32-.09-.5,0-1.34,.74-2.68,1.47-4.03,2.19-.98,.52-1.96,1.03-2.96,1.56Zm-.41-.89c.15-.08,.24-.12,.33-.17,2.17-1.19,4.34-2.38,6.51-3.56,.2-.11,.26-.23,.26-.45,0-1.98,0-3.95-.01-5.93,0-.22,.07-.32,.26-.42,1.82-.95,3.63-1.92,5.45-2.88,.21-.11,.28-.24,.28-.47,0-2.43,0-4.85,0-7.28v-.32c-.13,.06-.22,.11-.31,.16-4.15,2.24-8.29,4.48-12.44,6.7-.24,.13-.32,.27-.32,.54,0,4.36,0,8.73,0,13.09,0,.31,0,.62,0,1Zm14.2-21.49c0,.09-.01,.13-.01,.17,0,2.51,0,5.03,0,7.54,0,.19,.09,.27,.24,.35,1.82,.96,3.65,1.94,5.47,2.9,.19,.1,.28,.21,.27,.44-.01,1.99,0,3.97-.01,5.96,0,.19,.04,.29,.22,.39,2.18,1.18,4.36,2.38,6.54,3.57,.1,.05,.2,.11,.33,.17,0-.14,.01-.23,.01-.32,0-3.48,0-6.95,0-10.43,0-1.08,0-2.16,0-3.24,0-.16-.02-.28-.19-.38-4.07-2.25-8.15-4.5-12.22-6.75-.2-.11-.41-.22-.65-.36Zm4.84,12.17c-.08,.04-.13,.06-.17,.08-1.5,.82-3.01,1.64-4.51,2.45-.16,.09-.17,.2-.17,.36,0,1.53,0,3.06,0,4.59v.58s.06,0,.08,0c1.54-.78,3.09-1.56,4.63-2.35,.07-.04,.14-.16,.14-.25,0-1.8,0-3.6,0-5.45Zm-.57-.7c-.06-.05-.08-.07-.11-.08-1.52-.89-3.05-1.77-4.58-2.65-.09-.05-.26-.03-.36,.03-1.28,.74-2.56,1.49-3.84,2.23-.26,.15-.52,.29-.79,.44,.04,.04,.06,.06,.09,.08,1.53,.83,3.06,1.67,4.59,2.5,.08,.04,.22,.03,.31-.01,.35-.17,.69-.35,1.04-.54,1.2-.66,2.41-1.32,3.64-1.99Zm-5.4,8.78c0-1.74,0-3.46,0-5.17,0-.2-.06-.3-.25-.4-1.47-.74-2.93-1.48-4.4-2.23-.06-.03-.12-.06-.19-.09-.01,.05-.02,.08-.02,.1,0,1.72,0,3.45,0,5.17,0,.09,.09,.22,.17,.26,.43,.25,.87,.48,1.31,.7,1.11,.55,2.22,1.08,3.37,1.65Z" stroke="#000" stroke-miterlimit="10" stroke-width=".5"/>
  <path d="M203.06,100.43v3.16h-19.01v2.82h19v3.19h-19v2.99h19v3h-.32c-6.59,0-13.18,0-19.77,0-.93,0-1.69-.45-2.21-1.22-.17-.25-.25-.6-.26-.91-.02-3.49-.03-6.98,0-10.46,0-.76,.48-1.33,1.07-1.8,.72-.57,1.52-.77,2.45-.77,6.21,.03,12.42,.01,18.63,.01h.41Z"/>
  <path d="M262.07,103.59v2.81h18.82v3.18h-18.82v3h18.82v3h-.33c-6.59,0-13.18,0-19.78,0-.87,0-1.9-.71-2.21-1.54-.05-.13-.06-.29-.06-.43,0-3.48,.01-6.96-.02-10.43,0-.83,.34-1.4,.93-1.91,.71-.61,1.51-.85,2.45-.85,6.21,.01,12.42,0,18.63,0,.12,0,.25,0,.39,0v3.16h-18.83Z"/>
  <path d="M174.33,100.43l-3.54,5.81h.71c1,0,2.01,0,3.01,0,.65,0,1.19,.33,1.66,.71,.33,.27,.57,.66,.83,1.01,.08,.11,.12,.27,.12,.41,0,3.39,0,6.78,0,10.17,0,.06,0,.11-.01,.19h-3.54v-9.3h-16.43v6.13h-3.16v-15.12h3.15v5.62h.34c2.96,0,5.93,0,8.89,0,.23,0,.35-.08,.46-.26,1.09-1.74,2.18-3.48,3.28-5.22,.04-.07,.14-.15,.21-.15,1.31,0,2.61,0,3.99,0Z"/>
  <path d="M255.14,115.57h-3.52v-11.96h-15.68v11.95h-3.35v-15.14h.35c6.48,0,12.97,.01,19.45-.01,1.12,0,1.83,.55,2.39,1.4,.25,.38,.38,.82,.38,1.3-.01,4.07,0,8.14,0,12.22,0,.08,0,.15-.01,.25Z"/>
  <path d="M284.28,100.44h3.54v12.14h19.03v3.18h-.3c-6.33,0-12.65,0-18.98,0-1.19,0-2.16-.5-2.92-1.43-.23-.29-.37-.61-.37-.99,0-4.21,0-8.42,0-12.63v-.27Z"/>
  <path d="M210.36,115.57h-3.55v-.33c0-4.21,0-8.42,0-12.63,0-.37,.12-.68,.37-.95,.48-.54,1.06-.91,1.73-1.16,.15-.06,.32-.07,.49-.07,6.51,0,13.03,0,19.54,0,.09,0,.17,0,.27,.02v3.14h-18.84v11.98Z"/>
</svg>